<?xml version="1.0" encoding="utf-8"?>
<svg xmlns="http://www.w3.org/2000/svg" viewBox="0 0 500 500" xmlns:bx="https://boxy-svg.com">
  <defs>
    <path id="text-path-0" d="M -220.085 -513.258 C -207.427 -542.559 -178.916 -558.06 -157.016 -558.412 C -128.609 -558.869 -107.527 -547.482 -92.191 -532.724"/>
    <path id="text-path-1" d="M -269.64 1380.772 C 6.213 1510.204 361.61 1500.458 535.353 1384.534"/>
    <path id="text-path-2" d="M 69.007 200 C 91.185 121.668 153.944 77.984 214.044 66.836 C 286.463 52.09 337.899 76.133 382.317 113.189"/>
    <path id="text-path-3" d="M 161.417 456.494 C 217.073 476.244 268.94 480.584 325.575 459.494"/>
    <bx:export>
      <bx:file format="png" href="#object-0" excluded="true"/>
      <bx:file format="png" href="#object-1" path="Untitled 2.png" excluded="true"/>
      <bx:file format="svg" excluded="true"/>
      <bx:file format="png" path="Untitled 3.png"/>
    </bx:export>
  </defs>
  <g style="" transform="matrix(0.991837, 0, 0, 0.991837, 2.040815, 2.400684)" id="object-0">
    <ellipse style="fill: rgb(241, 235, 227); fill-rule: nonzero; stroke: rgb(82, 54, 40); stroke-width: 12px;" cx="250" cy="250" rx="245" ry="245"/>
    <text style="fill: rgb(82, 54, 40); font-family: Cinzel; font-size: 45px; font-weight: 900; white-space: pre;" transform="matrix(0.961262, 0.275638, -0.275638, 0.961262, 77.597176, -62.797966)"><textPath href="#text-path-2">THE ARTISAN'S</textPath></text>
    <text style="fill: rgb(82, 54, 40); font-family: Cinzel; font-size: 45px; font-weight: 900; white-space: pre;"><textPath href="#text-path-3">GRAIN</textPath></text>
  </g>
  <g style="" transform="matrix(0.991837, 0, 0, 0.991837, 2.040815, 2.400684)" id="object-1">
    <path style="fill: rgb(82, 54, 40); stroke: rgb(82, 54, 40); transform-box: fill-box; transform-origin: 50% 50%;" d="M 361.522 118.892 C 316.83 81.33 249.06 72.021 202.687 86.804 C 129.196 103.467 50.945 198.292 89.578 310.22 C 107.346 361.698 169.966 441.327 287.086 421.639 C 375.364 402.133 460.943 306.783 409.104 179.894 L 401.878 188.999 C 446.937 322.166 346.407 397.631 286.559 410.72 C 222.152 425.996 138.153 396.992 100.467 310.766 C 68.627 226.702 109.892 128.178 203.856 98.621 C 241.965 83.822 307.081 86.203 357.152 129.63 L 361.522 118.892 Z" transform="matrix(0.961262, 0.275638, -0.275638, 0.961262, 0.000002, 0.000001)"/>
    <path style="fill: rgb(82, 54, 37); stroke: rgb(82, 54, 40); transform-box: fill-box; transform-origin: 50% 50%;" d="M 126.14 142.473 C 127.908 140.226 129.349 160.631 129.359 188.18 C 129.364 203.887 115.988 217.625 116.868 247.769 C 117.618 273.494 131.189 288.802 133.617 305.951 C 136.525 326.491 135.494 354.236 134.576 358.072 L 127.339 356.734 C 125.245 356.5 127.562 333.811 124.727 310.224 C 122.755 293.823 108.003 274.628 108.125 247.86 C 108.245 221.588 116.111 209.917 119.492 195.119 C 124.785 171.957 119.636 143.996 116.2 146.766 L 126.14 142.473 Z" transform="matrix(0.998629, 0.052337, -0.052337, 0.998629, 0.000001, 0)"/>
    <path style="fill: rgb(82, 54, 37); stroke: rgb(82, 54, 40); transform-box: fill-box; transform-origin: 50% 50%;" d="M 157.612 114.964 C 156.672 121.679 163.528 145.073 160.488 185.6 C 158.859 207.31 144.229 223.614 143.129 248.225 C 142.262 267.634 161.35 296.255 164.081 322.079 C 166.859 348.352 162.56 377.099 163.13 382.717 L 155.62 382.381 C 155.629 349.287 157.888 354.889 155.944 320.889 C 154.758 300.146 133.358 272.732 134.892 249.348 C 136.247 228.673 150.491 206.007 152.706 182.235 C 155.3 154.396 147.1 120.482 150.168 117.257 L 157.612 114.964 Z" transform="matrix(0.998629, 0.052337, -0.052337, 0.998629, 0, 0)"/>
    <path style="fill: rgb(82, 54, 37); stroke: rgb(82, 54, 40); transform-box: fill-box; transform-origin: 50% 50%;" d="M 184.613 101.47 C 182.148 140.007 186.128 144.646 188.696 180.052 C 190.773 208.687 172.889 222.22 167.932 251.867 C 165.004 269.378 188.459 285.212 190.391 310.47 C 193.375 349.469 190.703 394.993 192.329 398.69 L 184.373 396.066 C 184.039 383.848 184.969 344.83 182.025 311.173 C 179.908 286.962 161.083 279.556 159.151 252.724 C 158.014 236.937 177.919 202.659 181.035 189.024 C 181.955 184.999 174.079 135.413 176.598 103.206 L 184.613 101.47 Z" transform="matrix(0.998629, 0.052337, -0.052337, 0.998629, 0, 0.000001)"/>
    <path style="fill: rgb(82, 54, 37); stroke: rgb(82, 54, 37); transform-box: fill-box; transform-origin: 50% 50%;" d="M 198.554 255.349 L 192.475 255.108 L 180.893 248.961 C 176.305 246.837 175.169 268.04 180.449 270.485 C 180.449 270.485 192.869 263.092 192.835 263.147 C 192.801 263.201 197.7 263.322 197.7 263.322 L 209.737 269.827 C 214.701 269.969 214.713 248.809 209.749 248.668 L 198.554 255.349 Z" transform="matrix(0.998629, 0.052337, -0.052337, 0.998629, -0.120069, -0.00295)"/>
    <path style="fill: rgb(82, 54, 37); stroke: rgb(82, 54, 40); transform-box: fill-box; transform-origin: 50% 50%;" d="M 214.335 93.437 C 215.281 101.446 211.305 140.933 215.73 186.486 C 217.707 206.833 228.356 227.096 228.985 245.332 C 229.778 268.318 217.74 289.249 218.232 311.352 C 219.499 368.204 222.414 411.198 221.025 411.244 L 213.237 409.067 C 214.807 408.726 210.041 361.401 211.177 309.896 C 211.738 284.46 219.885 269.093 221.567 246.156 C 222.228 237.145 209.506 212.9 208.147 187.859 C 205.714 143.016 205.189 123.884 206.871 94.88 C 206.964 93.263 214.309 93.933 214.335 93.437 Z" transform="matrix(0.998629, 0.052337, -0.052337, 0.998629, 0, -0.000001)"/>
    <path style="fill: rgb(81, 55, 40); stroke: rgb(82, 54, 40); transform-box: fill-box; transform-origin: 50% 50%;" d="M 235.157 90.833 C 235.157 90.833 241.509 417.323 241.552 417.323 C 241.595 417.323 249.878 417.277 249.878 417.277 L 243.342 90.38 L 235.157 90.833 Z" transform="matrix(0.998629, 0.052337, -0.052337, 0.998629, 0, -0.000001)"/>
    <path style="fill: rgb(82, 54, 40); stroke: rgb(82, 54, 40); transform-origin: 347.6px 279.056px;" d="M 410.789 122.656 C 408.574 149.519 393.565 155.625 384.85 155.819 L 372.996 177.502 C 374.898 164.673 397.642 165.904 407.809 172.414 C 407.837 183.167 375.519 197.721 368.545 184.934 L 361.838 203.1 C 362.592 192.031 385.865 192.202 396.896 199.742 C 387.15 215.32 360.53 221.599 357.253 211.614 L 349.113 230.698 C 349.767 220.395 378.129 218.493 383.82 227.474 C 375.051 240.857 351.337 251.917 345.315 240.544 C 330.955 257.656 306.927 371.676 309.203 371.903 L 295.432 368.772 C 295.432 368.772 332.668 234.667 337.728 235.151 C 325.015 238.448 320.53 208.946 327.906 196.723 C 333.601 197.579 349.838 212.221 345.633 220.366 L 352.296 206.09 C 346.05 210.443 333.175 192.182 341.846 167.644 C 358.441 175.224 362.598 192.239 358.341 192.599 L 365.779 180.509 C 358.402 175.145 350.434 160.829 366.286 137.149 C 369.279 137.832 380.856 160.673 373.39 164.665 L 380.981 154.001 C 372.83 138.979 396.656 118.68 410.789 122.656 Z" transform="matrix(0.945518, 0.325569, -0.325569, 0.945518, -0.000005, -0.000001)"/>
    <path style="fill: rgb(82, 54, 40); stroke: rgb(82, 54, 40); transform-origin: 272.743px 301.006px;" d="M 335.932 457.406 C 333.717 430.543 318.708 424.437 309.993 424.243 L 298.139 402.56 C 300.041 415.389 322.785 414.158 332.952 407.648 C 332.98 396.895 300.662 382.341 293.688 395.128 L 286.981 376.962 C 287.735 388.031 311.008 387.86 322.039 380.32 C 312.293 364.742 285.673 358.463 282.396 368.448 L 274.256 349.364 C 274.91 359.667 303.272 361.569 308.963 352.588 C 300.194 339.205 276.48 328.145 270.458 339.518 C 256.098 322.406 232.07 208.386 234.346 208.159 L 220.575 211.29 C 220.575 211.29 257.811 345.395 262.871 344.911 C 250.158 341.614 245.673 371.116 253.049 383.339 C 258.744 382.483 274.981 367.841 270.776 359.696 L 277.439 373.972 C 271.193 369.619 258.318 387.88 266.989 412.418 C 283.584 404.838 287.741 387.823 283.484 387.463 L 290.922 399.553 C 283.545 404.917 275.577 419.233 291.429 442.913 C 294.422 442.23 305.999 419.389 298.533 415.397 L 306.124 426.061 C 297.973 441.083 321.799 461.382 335.932 457.406 Z" transform="matrix(-0.866026, -0.5, 0.5, -0.866026, -0.000025, -0.000016)"/>
    <path style="stroke: rgb(82, 54, 37); fill: none; transform-box: fill-box; transform-origin: 50% 50%; stroke-width: 6.04938px;" d="M 195.492 259.86 C 203.947 255.976 207.242 230.837 194.669 233.549 C 181.507 236.388 191.336 259.881 195.492 259.86 Z" transform="matrix(0.998629, 0.052337, -0.052337, 0.998629, -0.137622, -0.070626)"/>
  </g>
  <path style="fill: rgb(82, 54, 40); stroke: rgb(82, 54, 40); transform-box: fill-box; transform-origin: 50% 50%;" d="M 267.491 298.33 L 304.985 298.355 C 306.74 296.914 287.66 292.271 281.698 293.258 C 276.871 294.057 278.447 290.639 279.204 289.346 C 281.205 285.927 332.773 292.31 309.121 315.6 L 309.837 326.388 C 340.421 339.59 314.581 406.478 308.648 413.91 C 302.715 421.342 253.443 434.194 254.137 426.5 C 236.129 409.825 238.27 333.636 261.814 323.958 L 263.479 313.344 C 253.665 309.917 252.419 287.946 283.924 288.441 C 285.849 288.471 296.57 290.937 291.469 292.37 C 287.29 293.544 266.081 293.439 267.491 298.33 Z" transform="matrix(0.970296, 0.241922, -0.241922, 0.970296, -0.253303, -0.470036)"/>
</svg>